<svg xmlns="http://www.w3.org/2000/svg" viewBox="0 0 491.7 491.7"><path d="M152.491 261.671H16.6c-9.176 0-16.6 7.429-16.6 16.596 0 9.165 7.423 16.597 16.6 16.597h135.891c9.173 0 16.597-7.432 16.597-16.597-.001-9.167-7.424-16.596-16.597-16.596zm16.596-66.392H66.392c-9.176 0-16.6 7.433-16.6 16.601 0 9.164 7.424 16.596 16.6 16.596h102.696c9.173 0 16.597-7.432 16.597-16.596-.001-9.169-7.424-16.601-16.598-16.601zm16.597-66.388h-69.5c-9.176 0-16.599 7.431-16.599 16.596 0 9.167 7.423 16.6 16.599 16.6h69.5c9.176 0 16.6-7.433 16.6-16.6 0-9.165-7.424-16.596-16.6-16.596zm194.452 149.554c-35.658 0-64.654 29.005-64.654 64.663 0 35.651 28.996 64.656 64.654 64.656 35.643 0 64.656-29.005 64.656-64.656 0-35.658-29.013-64.663-64.656-64.663zm0 96.123c-17.358 0-31.461-14.108-31.461-31.46 0-17.35 14.103-31.467 31.461-31.467 17.36 0 31.46 14.117 31.46 31.467.001 17.351-14.1 31.46-31.46 31.46z"/><path d="M448.294 212.031l-10.405-.089a11.131 11.131 0 0 1-10.375-7.326L386.473 91.262a11.108 11.108 0 0 0-10.455-7.326H261.573c-5.317 0-9.888 3.77-10.894 8.989l-45.48 233.657c-.615 3.261.227 6.631 2.335 9.19a11.092 11.092 0 0 0 8.573 4.045h74.804c1.781-47.83 40.973-86.269 89.225-86.269s87.446 38.438 89.228 86.269h11.215c6.146 0 11.121-4.976 11.121-11.108v-72.922c0-24.031-19.369-43.561-43.406-43.756zm-60.993-34.532a6.434 6.434 0 0 1-5.137 2.568H266.905a6.372 6.372 0 0 1-4.895-2.271 6.406 6.406 0 0 1-1.425-5.193l9.61-57.719a6.422 6.422 0 0 1 6.323-5.354h88.676a6.397 6.397 0 0 1 6.142 4.603l16.988 57.718a6.41 6.41 0 0 1-1.023 5.648z"/></svg>