<svg height="640" viewBox="-24 0 480 480" width="640" xmlns="http://www.w3.org/2000/svg"><path d="M192 40c0 8.836-7.164 16-16 16s-16-7.164-16-16 7.164-16 16-16 16 7.164 16 16zm-64 248H80c-8.836 0-16 7.164-16 16v48c0 8.836 7.164 16 16 16h48c8.836 0 16-7.164 16-16v-48c0-8.836-7.164-16-16-16zm-48 64v-48h48v48zm80-128h64v16h-64zm0-32h32v16h-32zm0 144h32v16h-32zm0-32h32v16h-32zm48-112h48v16h-48zm112 120a8 8 0 0 1 8 8h16a24.003 24.003 0 0 0-16-22.527V288h-16v9.473c-11.012 3.879-17.621 15.132-15.645 26.64 1.98 11.508 11.97 19.91 23.645 19.887a8 8 0 1 1-8 8h-16a24.003 24.003 0 0 0 16 22.527V384h16v-9.473c11.012-3.879 17.621-15.132 15.645-26.64-1.98-11.508-11.97-19.91-23.645-19.887a8 8 0 0 1 0-16zm0 0"/><path d="M320 256c-44.184 0-80 35.816-80 80s35.816 80 80 80 80-35.816 80-80c-.047-44.164-35.836-79.953-80-80zm0 144c-35.348 0-64-28.652-64-64s28.652-64 64-64 64 28.652 64 64c-.04 35.328-28.672 63.96-64 64zm0 0"/><path d="M432 336c-.074-49.496-32.582-93.09-80-107.281V120c-.027-22.082-17.918-39.973-40-40h-40.8C267.37 61.387 251 48.023 232 48h-16V24c0-13.254-10.746-24-24-24h-32c-13.254 0-24 10.746-24 24v24h-16c-19 .023-35.371 13.387-39.2 32H40C17.918 80.027.027 97.918 0 120v320c.027 22.082 17.918 39.973 40 40h272c20.723-.063 37.953-15.977 39.656-36.633C399.246 429.301 431.926 385.625 432 336zM96 88c0-13.254 10.746-24 24-24h24a8 8 0 0 0 8-8V24a8 8 0 0 1 8-8h32a8 8 0 0 1 8 8v32a8 8 0 0 0 8 8h24c13.254 0 24 10.746 24 24v24H96zm216 376H40c-13.254 0-24-10.746-24-24V120c0-13.254 10.746-24 24-24h40v24a8 8 0 0 0 8 8h176a8 8 0 0 0 8-8V96h40c13.254 0 24 10.746 24 24v105.281c-41.48-6-82.84 11.68-107.168 45.809-24.328 34.133-27.55 78.992-8.352 116.25 19.2 37.258 57.606 60.668 99.52 60.66 4.977-.04 9.945-.406 14.871-1.105A23.996 23.996 0 0 1 312 464zm8-32c-53.02 0-96-42.98-96-96s42.98-96 96-96 96 42.98 96 96c-.059 52.996-43.004 95.941-96 96zm0 0"/><path d="M360 328h16v16h-16zm-96 0h16v16h-16zM146.344 170.344l-8.848 8.855A15.897 15.897 0 0 0 128 176H80c-8.836 0-16 7.164-16 16v48c0 8.836 7.164 16 16 16h48c8.836 0 16-7.164 16-16v-44.688l13.656-13.656zM128 240H80v-48h44.688L104 212.688l-10.344-10.344-11.312 11.312 16 16a8.004 8.004 0 0 0 11.312 0L128 211.305zm0 0"/></svg>