<svg height="512pt" viewBox="0 -10 512 511" width="512pt" xmlns="http://www.w3.org/2000/svg"><path d="m40.179688 171.464844h-10.179688v245.195312h20.976562c13.488282-40.183594 64.878907-52.65625 95.179688-22.355468 6.214844 6.214843 11.011719 13.839843 13.867188 22.355468h158.980468v-245.195312h-11.179687c4.359375 77.046875-56.859375 141.714844-133.824219 141.714844s-138.179688-64.667969-133.820312-141.714844zm86.132812-4.773438c-8.285156 0-15-6.71875-15-15 0-8.285156 6.714844-15 15-15h24.21875c8.285156 0 15 6.714844 15 15v24.214844c0 7.09375-4.34375 10.492188-9 15.691406h2.269531c8.285157 0 15 6.714844 15 15s-6.714843 15-15 15l-35.757812-.0625c-12.800781.003906-19.765625-15.257812-11.132813-24.898437l23.621094-26.371094v-3.574219zm48.203125-15.035156c0-8.285156 6.714844-15 15-15s15 6.714844 15 15v14.566406h5.4375v-14.566406c0-8.285156 6.71875-15 15-15 8.285156 0 15 6.714844 15 15v54.964844c0 8.285156-6.714844 15-15 15-8.28125 0-15-6.714844-15-15v-10.398438h-20.4375c-8.285156 0-15-6.714844-15-15zm-105.308594-56.097656-15.105469-15.105469c-5.855468-5.855469-5.855468-15.355469 0-21.210937 5.859376-5.855469 15.355469-5.855469 21.210938 0l15.105469 15.101562c19.242187-15.367188 42.808593-25.542969 68.582031-28.414062v-15.429688h-20.59375c-8.285156 0-15-6.714844-15-15s6.714844-15 15-15h71.1875c8.285156 0 15 6.714844 15 15s-6.714844 15-15 15h-20.59375v15.429688c25.773438 2.871093 49.339844 13.050781 68.582031 28.417968l15.105469-15.105468c5.855469-5.855469 15.351562-5.855469 21.210938 0 5.855468 5.855468 5.855468 15.355468 0 21.210937l-15.105469 15.105469c10.730469 13.433594 18.929687 28.976562 23.878906 45.90625h31.328125c8.285156 0 15 6.714844 15 15v33.472656c36.738281 3.253906 68.054688 23.164062 87.128906 55.171875l29.410156 49.359375c25.671876.289062 46.460938 21.285156 46.460938 46.996094v90c0 8.285156-6.714844 15-15 15h-26.148438c-5.378906 26.476562-28.773437 46-56.351562 46s-50.972656-19.523438-56.347656-46c-65.433594 0-130.894532.195312-196.34375.195312-5.449219 26.378906-28.800782 45.804688-56.308594 45.804688s-50.855469-19.421875-56.308594-45.804688h-34.191406c-8.285156 0-15-6.714844-15-15v-275.195312c0-8.285156 6.714844-15 15-15h30.328125c4.949219-16.929688 13.148437-32.472656 23.878906-45.90625zm178.363281 10.011718c40.628907 40.628907 40.628907 106.507813 0 147.140626-40.628906 40.628906-106.511718 40.628906-147.140624 0-40.628907-40.632813-40.628907-106.511719 0-147.140626 40.628906-40.628906 106.511718-40.628906 147.140624 0zm221.390626 310.894532h13.039062v-75c0-9.34375-7.65625-17-17-17h-75c-8.285156 0-15-6.71875-15-15 0-8.285156 6.714844-15 15-15h40.726562l-20.261718-34.003906c-13.683594-22.960938-35.273438-37.304688-61.464844-40.375v196.378906h11.042969c13.601562-40.046875 64.875-52.398438 95.113281-22.160156 6.164062 6.164062 10.9375 13.722656 13.804688 22.160156zm-35.015626-.949219c-17.273437-17.273437-46.945312-4.984375-46.945312 19.449219 0 24.429687 29.671875 36.71875 46.945312 19.445312 10.738282-10.738281 10.738282-28.15625 0-38.894531zm-355.863281 17.296875c1.101563-14.238281 13.003907-25.347656 27.417969-25.347656 24.433594 0 36.722656 29.671875 19.445312 46.945312-16.910156 16.910156-47.925781 5.957032-46.863281-21.597656zm0 0" fill-rule="evenodd"/></svg>