<svg height="480pt" viewBox="-24 0 480 480" width="480pt" xmlns="http://www.w3.org/2000/svg"><path d="m192 40c0 8.835938-7.164062 16-16 16s-16-7.164062-16-16 7.164062-16 16-16 16 7.164062 16 16zm0 0"/><path d="m128 288h-48c-8.835938 0-16 7.164062-16 16v48c0 8.835938 7.164062 16 16 16h48c8.835938 0 16-7.164062 16-16v-48c0-8.835938-7.164062-16-16-16zm-48 64v-48h48v48zm0 0"/><path d="m160 224h64v16h-64zm0 0"/><path d="m160 192h32v16h-32zm0 0"/><path d="m160 336h32v16h-32zm0 0"/><path d="m160 304h32v16h-32zm0 0"/><path d="m208 192h48v16h-48zm0 0"/><path d="m320 312c4.417969 0 8 3.582031 8 8h16c-.042969-10.132812-6.445312-19.148438-16-22.527344v-9.472656h-16v9.472656c-11.011719 3.878906-17.621094 15.132813-15.644531 26.640625 1.980469 11.507813 11.96875 19.910157 23.644531 19.886719 4.417969 0 8 3.582031 8 8s-3.582031 8-8 8-8-3.582031-8-8h-16c.042969 10.132812 6.445312 19.148438 16 22.527344v9.472656h16v-9.472656c11.011719-3.878906 17.621094-15.132813 15.644531-26.640625-1.980469-11.507813-11.96875-19.910157-23.644531-19.886719-4.417969 0-8-3.582031-8-8s3.582031-8 8-8zm0 0"/><path d="m320 256c-44.183594 0-80 35.816406-80 80s35.816406 80 80 80 80-35.816406 80-80c-.046875-44.164062-35.835938-79.953125-80-80zm0 144c-35.347656 0-64-28.652344-64-64s28.652344-64 64-64 64 28.652344 64 64c-.039062 35.328125-28.671875 63.960938-64 64zm0 0"/><path d="m432 336c-.074219-49.496094-32.582031-93.089844-80-107.28125v-108.71875c-.027344-22.082031-17.917969-39.972656-40-40h-40.800781c-3.828125-18.613281-20.199219-31.976562-39.199219-32h-16v-24c0-13.253906-10.746094-24-24-24h-32c-13.253906 0-24 10.746094-24 24v24h-16c-19 .023438-35.371094 13.386719-39.199219 32h-40.800781c-22.082031.027344-39.9726562 17.917969-40 40v320c.0273438 22.082031 17.917969 39.972656 40 40h272c20.722656-.0625 37.953125-15.976562 39.65625-36.632812 47.589844-14.066407 80.269531-57.742188 80.34375-107.367188zm-336-248c0-13.253906 10.746094-24 24-24h24c4.417969 0 8-3.582031 8-8v-32c0-4.417969 3.582031-8 8-8h32c4.417969 0 8 3.582031 8 8v32c0 4.417969 3.582031 8 8 8h24c13.253906 0 24 10.746094 24 24v24h-160zm216 376h-272c-13.253906 0-24-10.746094-24-24v-320c0-13.253906 10.746094-24 24-24h40v24c0 4.417969 3.582031 8 8 8h176c4.417969 0 8-3.582031 8-8v-24h40c13.253906 0 24 10.746094 24 24v105.28125c-41.480469-6-82.839844 11.679688-107.167969 45.808594-24.328125 34.132812-27.550781 78.992187-8.351562 116.25 19.199219 37.257812 57.605469 60.667968 99.519531 60.660156 4.976562-.039062 9.945312-.40625 14.871094-1.105469-3.03125 10.113281-12.316406 17.054688-22.871094 17.105469zm8-32c-53.019531 0-96-42.980469-96-96s42.980469-96 96-96 96 42.980469 96 96c-.058594 52.996094-43.003906 95.941406-96 96zm0 0"/><path d="m360 328h16v16h-16zm0 0"/><path d="m264 328h16v16h-16zm0 0"/><path d="m146.34375 170.34375-8.847656 8.855469c-2.738282-2.0625-6.066406-3.183594-9.496094-3.199219h-48c-8.835938 0-16 7.164062-16 16v48c0 8.835938 7.164062 16 16 16h48c8.835938 0 16-7.164062 16-16v-44.6875l13.65625-13.65625zm-18.34375 69.65625h-48v-48h44.6875l-20.6875 20.6875-10.34375-10.34375-11.3125 11.3125 16 16c3.125 3.121094 8.1875 3.121094 11.3125 0l18.34375-18.351562zm0 0"/></svg>